<svg height="511pt" viewBox="-11 0 511 511.9998" width="511pt" xmlns="http://www.w3.org/2000/svg"><path d="m185.179688 68.320312c0 32.984376 26.742187 59.726563 59.726562 59.726563v-119.453125c-32.984375 0-59.726562 26.738281-59.726562 59.726562zm0 0" fill="#ffa733"/><path d="m244.90625 8.59375v119.453125c32.984375 0 59.726562-26.742187 59.726562-59.726563 0-32.988281-26.742187-59.726562-59.726562-59.726562zm0 0" fill="#ffb655"/><path d="m486.917969 326.789062-48.269531-48.265624c-3.332032-3.332032-8.730469-3.332032-12.0625 0l-48.269532 48.265624c-3.273437 3.390626-3.179687 8.789063.210938 12.066407 3.304687 3.191406 8.546875 3.191406 11.855468 0l33.703126-33.703125v10.605468c-.160157 95.535157-75.222657 174.160157-170.648438 178.742188v-272.597656h59.726562c4.710938 0 8.53125-3.820313 8.53125-8.535156 0-4.710938-3.820312-8.53125-8.53125-8.53125h-59.726562v-68.847657c37.402344-4.710937 63.902344-38.851562 59.191406-76.253906-4.714844-37.402344-38.851562-63.902344-76.253906-59.191406-37.402344 4.710937-63.902344 38.851562-59.191406 76.253906 3.898437 30.933594 28.257812 55.296875 59.191406 59.191406v68.847657h-59.726562c-4.714844 0-8.53125 3.820312-8.53125 8.53125 0 4.714843 3.816406 8.535156 8.53125 8.535156h59.726562v272.597656c-95.429688-4.582031-170.488281-83.207031-170.648438-178.742188v-10.605468l33.703126 33.699218c3.390624 3.273438 8.789062 3.183594 12.066406-.207031 3.191406-3.308593 3.191406-8.550781 0-11.855469l-48.269532-48.269531c-3.332031-3.328125-8.730468-3.328125-12.0625 0l-48.269531 48.269531c-3.273437 3.390626-3.179687 8.789063.210938 12.0625 3.304687 3.195313 8.546875 3.195313 11.855469 0l33.703124-33.699218v10.605468c0 108.382813 87.859376 196.242188 196.242188 196.242188s196.242188-87.863281 196.242188-196.242188v-10.605468l33.703124 33.699218c3.390626 3.277344 8.789063 3.183594 12.066407-.207031 3.191406-3.304687 3.191406-8.550781 0-11.855469zm-293.207031-258.46875c0-28.273437 22.921874-51.195312 51.195312-51.195312s51.195312 22.921875 51.195312 51.195312c0 28.273438-22.921874 51.191407-51.195312 51.191407-28.261719-.027344-51.164062-22.929688-51.195312-51.191407zm0 0" fill="#ff9811"/></svg>